<mxfile host="app.diagrams.net" modified="2024-01-07T14:27:56.097Z" agent="Mozilla/5.0 (Windows NT 10.0; Win64; x64) AppleWebKit/537.36 (KHTML, like Gecko) Chrome/120.0.0.0 Safari/537.36" etag="AvaEXoq_CQom4GVpK8h0" version="22.1.17" type="device">
  <diagram id="C5RBs43oDa-KdzZeNtuy" name="Page-1">
    <mxGraphModel dx="2117" dy="1725" grid="1" gridSize="10" guides="1" tooltips="1" connect="1" arrows="1" fold="1" page="1" pageScale="1" pageWidth="827" pageHeight="1169" math="0" shadow="0">
      <root>
        <mxCell id="WIyWlLk6GJQsqaUBKTNV-0" />
        <mxCell id="WIyWlLk6GJQsqaUBKTNV-1" parent="WIyWlLk6GJQsqaUBKTNV-0" />
        <mxCell id="zkfFHV4jXpPFQw0GAbJ--0" value="DbInterface" style="swimlane;fontStyle=2;align=center;verticalAlign=top;childLayout=stackLayout;horizontal=1;startSize=26;horizontalStack=0;resizeParent=1;resizeLast=0;collapsible=1;marginBottom=0;rounded=0;shadow=0;strokeWidth=1;" parent="WIyWlLk6GJQsqaUBKTNV-1" vertex="1">
          <mxGeometry x="300" y="130" width="200" height="242" as="geometry">
            <mxRectangle x="230" y="140" width="160" height="26" as="alternateBounds" />
          </mxGeometry>
        </mxCell>
        <mxCell id="zkfFHV4jXpPFQw0GAbJ--3" value="- DbCRUD: dbCRUD" style="text;align=left;verticalAlign=top;spacingLeft=4;spacingRight=4;overflow=hidden;rotatable=0;points=[[0,0.5],[1,0.5]];portConstraint=eastwest;rounded=0;shadow=0;html=0;" parent="zkfFHV4jXpPFQw0GAbJ--0" vertex="1">
          <mxGeometry y="26" width="200" height="26" as="geometry" />
        </mxCell>
        <mxCell id="P9EtFwSXqVhBpJdGbQ5c-72" value="- DBManager: dbManager" style="text;align=left;verticalAlign=top;spacingLeft=4;spacingRight=4;overflow=hidden;rotatable=0;points=[[0,0.5],[1,0.5]];portConstraint=eastwest;rounded=0;shadow=0;html=0;" vertex="1" parent="zkfFHV4jXpPFQw0GAbJ--0">
          <mxGeometry y="52" width="200" height="26" as="geometry" />
        </mxCell>
        <mxCell id="zkfFHV4jXpPFQw0GAbJ--4" value="" style="line;html=1;strokeWidth=1;align=left;verticalAlign=middle;spacingTop=-1;spacingLeft=3;spacingRight=3;rotatable=0;labelPosition=right;points=[];portConstraint=eastwest;" parent="zkfFHV4jXpPFQw0GAbJ--0" vertex="1">
          <mxGeometry y="78" width="200" height="8" as="geometry" />
        </mxCell>
        <mxCell id="P9EtFwSXqVhBpJdGbQ5c-75" value="+ inizializeBD(): void" style="text;align=left;verticalAlign=top;spacingLeft=4;spacingRight=4;overflow=hidden;rotatable=0;points=[[0,0.5],[1,0.5]];portConstraint=eastwest;" vertex="1" parent="zkfFHV4jXpPFQw0GAbJ--0">
          <mxGeometry y="86" width="200" height="26" as="geometry" />
        </mxCell>
        <mxCell id="P9EtFwSXqVhBpJdGbQ5c-76" value="+ closeConnection(): void" style="text;align=left;verticalAlign=top;spacingLeft=4;spacingRight=4;overflow=hidden;rotatable=0;points=[[0,0.5],[1,0.5]];portConstraint=eastwest;" vertex="1" parent="zkfFHV4jXpPFQw0GAbJ--0">
          <mxGeometry y="112" width="200" height="26" as="geometry" />
        </mxCell>
        <mxCell id="P9EtFwSXqVhBpJdGbQ5c-109" value="+ insertRecord(Utente): void" style="text;align=left;verticalAlign=top;spacingLeft=4;spacingRight=4;overflow=hidden;rotatable=0;points=[[0,0.5],[1,0.5]];portConstraint=eastwest;" vertex="1" parent="zkfFHV4jXpPFQw0GAbJ--0">
          <mxGeometry y="138" width="200" height="26" as="geometry" />
        </mxCell>
        <mxCell id="P9EtFwSXqVhBpJdGbQ5c-123" value="+ estraiRecord(int): Utente" style="text;align=left;verticalAlign=top;spacingLeft=4;spacingRight=4;overflow=hidden;rotatable=0;points=[[0,0.5],[1,0.5]];portConstraint=eastwest;" vertex="1" parent="zkfFHV4jXpPFQw0GAbJ--0">
          <mxGeometry y="164" width="200" height="26" as="geometry" />
        </mxCell>
        <mxCell id="P9EtFwSXqVhBpJdGbQ5c-89" value="- hasDB(): void" style="text;align=left;verticalAlign=top;spacingLeft=4;spacingRight=4;overflow=hidden;rotatable=0;points=[[0,0.5],[1,0.5]];portConstraint=eastwest;" vertex="1" parent="zkfFHV4jXpPFQw0GAbJ--0">
          <mxGeometry y="190" width="200" height="26" as="geometry" />
        </mxCell>
        <mxCell id="P9EtFwSXqVhBpJdGbQ5c-91" value="- hasTable(): void" style="text;align=left;verticalAlign=top;spacingLeft=4;spacingRight=4;overflow=hidden;rotatable=0;points=[[0,0.5],[1,0.5]];portConstraint=eastwest;" vertex="1" parent="zkfFHV4jXpPFQw0GAbJ--0">
          <mxGeometry y="216" width="200" height="26" as="geometry" />
        </mxCell>
        <mxCell id="zkfFHV4jXpPFQw0GAbJ--6" value="DBManager" style="swimlane;fontStyle=0;align=center;verticalAlign=top;childLayout=stackLayout;horizontal=1;startSize=26;horizontalStack=0;resizeParent=1;resizeLast=0;collapsible=1;marginBottom=0;rounded=0;shadow=0;strokeWidth=1;" parent="WIyWlLk6GJQsqaUBKTNV-1" vertex="1">
          <mxGeometry x="50" y="510" width="190" height="279" as="geometry">
            <mxRectangle x="130" y="380" width="160" height="26" as="alternateBounds" />
          </mxGeometry>
        </mxCell>
        <mxCell id="zkfFHV4jXpPFQw0GAbJ--7" value="- Connection: connection" style="text;align=left;verticalAlign=top;spacingLeft=4;spacingRight=4;overflow=hidden;rotatable=0;points=[[0,0.5],[1,0.5]];portConstraint=eastwest;" parent="zkfFHV4jXpPFQw0GAbJ--6" vertex="1">
          <mxGeometry y="26" width="190" height="26" as="geometry" />
        </mxCell>
        <mxCell id="zkfFHV4jXpPFQw0GAbJ--8" value="- String: username, password,&#xa;Â dbName, path" style="text;align=left;verticalAlign=top;spacingLeft=4;spacingRight=4;overflow=hidden;rotatable=0;points=[[0,0.5],[1,0.5]];portConstraint=eastwest;rounded=0;shadow=0;html=0;" parent="zkfFHV4jXpPFQw0GAbJ--6" vertex="1">
          <mxGeometry y="52" width="190" height="48" as="geometry" />
        </mxCell>
        <mxCell id="P9EtFwSXqVhBpJdGbQ5c-12" value="- String[]: datiConfigurazione" style="text;align=left;verticalAlign=top;spacingLeft=4;spacingRight=4;overflow=hidden;rotatable=0;points=[[0,0.5],[1,0.5]];portConstraint=eastwest;rounded=0;shadow=0;html=0;" vertex="1" parent="zkfFHV4jXpPFQw0GAbJ--6">
          <mxGeometry y="100" width="190" height="40" as="geometry" />
        </mxCell>
        <mxCell id="zkfFHV4jXpPFQw0GAbJ--9" value="" style="line;html=1;strokeWidth=1;align=left;verticalAlign=middle;spacingTop=-1;spacingLeft=3;spacingRight=3;rotatable=0;labelPosition=right;points=[];portConstraint=eastwest;" parent="zkfFHV4jXpPFQw0GAbJ--6" vertex="1">
          <mxGeometry y="140" width="190" height="8" as="geometry" />
        </mxCell>
        <mxCell id="zkfFHV4jXpPFQw0GAbJ--10" value="- DBManager()" style="text;align=left;verticalAlign=top;spacingLeft=4;spacingRight=4;overflow=hidden;rotatable=0;points=[[0,0.5],[1,0.5]];portConstraint=eastwest;fontStyle=0" parent="zkfFHV4jXpPFQw0GAbJ--6" vertex="1">
          <mxGeometry y="148" width="190" height="24" as="geometry" />
        </mxCell>
        <mxCell id="zkfFHV4jXpPFQw0GAbJ--11" value="+ getInstance(): DBManager" style="text;align=left;verticalAlign=top;spacingLeft=4;spacingRight=4;overflow=hidden;rotatable=0;points=[[0,0.5],[1,0.5]];portConstraint=eastwest;" parent="zkfFHV4jXpPFQw0GAbJ--6" vertex="1">
          <mxGeometry y="172" width="190" height="26" as="geometry" />
        </mxCell>
        <mxCell id="P9EtFwSXqVhBpJdGbQ5c-13" value="+ connetti(): boolean" style="text;align=left;verticalAlign=top;spacingLeft=4;spacingRight=4;overflow=hidden;rotatable=0;points=[[0,0.5],[1,0.5]];portConstraint=eastwest;" vertex="1" parent="zkfFHV4jXpPFQw0GAbJ--6">
          <mxGeometry y="198" width="190" height="26" as="geometry" />
        </mxCell>
        <mxCell id="P9EtFwSXqVhBpJdGbQ5c-14" value="+ disconnetti()" style="text;align=left;verticalAlign=top;spacingLeft=4;spacingRight=4;overflow=hidden;rotatable=0;points=[[0,0.5],[1,0.5]];portConstraint=eastwest;" vertex="1" parent="zkfFHV4jXpPFQw0GAbJ--6">
          <mxGeometry y="224" width="190" height="26" as="geometry" />
        </mxCell>
        <mxCell id="P9EtFwSXqVhBpJdGbQ5c-15" value="+ getConnection(): connection&#xa;" style="text;align=left;verticalAlign=top;spacingLeft=4;spacingRight=4;overflow=hidden;rotatable=0;points=[[0,0.5],[1,0.5]];portConstraint=eastwest;" vertex="1" parent="zkfFHV4jXpPFQw0GAbJ--6">
          <mxGeometry y="250" width="190" height="26" as="geometry" />
        </mxCell>
        <mxCell id="zkfFHV4jXpPFQw0GAbJ--12" value="" style="endArrow=block;endSize=10;endFill=0;shadow=0;strokeWidth=1;rounded=0;edgeStyle=elbowEdgeStyle;elbow=vertical;" parent="WIyWlLk6GJQsqaUBKTNV-1" source="zkfFHV4jXpPFQw0GAbJ--6" target="zkfFHV4jXpPFQw0GAbJ--0" edge="1">
          <mxGeometry width="160" relative="1" as="geometry">
            <mxPoint x="200" y="203" as="sourcePoint" />
            <mxPoint x="200" y="203" as="targetPoint" />
          </mxGeometry>
        </mxCell>
        <mxCell id="zkfFHV4jXpPFQw0GAbJ--17" value="Utente" style="swimlane;fontStyle=0;align=center;verticalAlign=top;childLayout=stackLayout;horizontal=1;startSize=26;horizontalStack=0;resizeParent=1;resizeLast=0;collapsible=1;marginBottom=0;rounded=0;shadow=0;strokeWidth=1;" parent="WIyWlLk6GJQsqaUBKTNV-1" vertex="1">
          <mxGeometry x="-280" y="-500" width="230" height="320" as="geometry">
            <mxRectangle x="550" y="140" width="160" height="26" as="alternateBounds" />
          </mxGeometry>
        </mxCell>
        <mxCell id="zkfFHV4jXpPFQw0GAbJ--18" value="- int: id" style="text;align=left;verticalAlign=top;spacingLeft=4;spacingRight=4;overflow=hidden;rotatable=0;points=[[0,0.5],[1,0.5]];portConstraint=eastwest;" parent="zkfFHV4jXpPFQw0GAbJ--17" vertex="1">
          <mxGeometry y="26" width="230" height="26" as="geometry" />
        </mxCell>
        <mxCell id="zkfFHV4jXpPFQw0GAbJ--19" value="- String nome" style="text;align=left;verticalAlign=top;spacingLeft=4;spacingRight=4;overflow=hidden;rotatable=0;points=[[0,0.5],[1,0.5]];portConstraint=eastwest;rounded=0;shadow=0;html=0;" parent="zkfFHV4jXpPFQw0GAbJ--17" vertex="1">
          <mxGeometry y="52" width="230" height="26" as="geometry" />
        </mxCell>
        <mxCell id="zkfFHV4jXpPFQw0GAbJ--20" value="- String: indirizzo" style="text;align=left;verticalAlign=top;spacingLeft=4;spacingRight=4;overflow=hidden;rotatable=0;points=[[0,0.5],[1,0.5]];portConstraint=eastwest;rounded=0;shadow=0;html=0;" parent="zkfFHV4jXpPFQw0GAbJ--17" vertex="1">
          <mxGeometry y="78" width="230" height="26" as="geometry" />
        </mxCell>
        <mxCell id="zkfFHV4jXpPFQw0GAbJ--21" value="- List&lt;Prodotto&gt;: storicoAcquisti" style="text;align=left;verticalAlign=top;spacingLeft=4;spacingRight=4;overflow=hidden;rotatable=0;points=[[0,0.5],[1,0.5]];portConstraint=eastwest;rounded=0;shadow=0;html=0;" parent="zkfFHV4jXpPFQw0GAbJ--17" vertex="1">
          <mxGeometry y="104" width="230" height="26" as="geometry" />
        </mxCell>
        <mxCell id="P9EtFwSXqVhBpJdGbQ5c-94" value="- Carrello: carrello" style="text;align=left;verticalAlign=top;spacingLeft=4;spacingRight=4;overflow=hidden;rotatable=0;points=[[0,0.5],[1,0.5]];portConstraint=eastwest;rounded=0;shadow=0;html=0;" vertex="1" parent="zkfFHV4jXpPFQw0GAbJ--17">
          <mxGeometry y="130" width="230" height="26" as="geometry" />
        </mxCell>
        <mxCell id="zkfFHV4jXpPFQw0GAbJ--23" value="" style="line;html=1;strokeWidth=1;align=left;verticalAlign=middle;spacingTop=-1;spacingLeft=3;spacingRight=3;rotatable=0;labelPosition=right;points=[];portConstraint=eastwest;" parent="zkfFHV4jXpPFQw0GAbJ--17" vertex="1">
          <mxGeometry y="156" width="230" height="8" as="geometry" />
        </mxCell>
        <mxCell id="zkfFHV4jXpPFQw0GAbJ--24" value="+ Utente(String, String, List&lt;Prodotto&gt;)" style="text;align=left;verticalAlign=top;spacingLeft=4;spacingRight=4;overflow=hidden;rotatable=0;points=[[0,0.5],[1,0.5]];portConstraint=eastwest;" parent="zkfFHV4jXpPFQw0GAbJ--17" vertex="1">
          <mxGeometry y="164" width="230" height="26" as="geometry" />
        </mxCell>
        <mxCell id="P9EtFwSXqVhBpJdGbQ5c-143" value="- aggiungiProdottoCarrello(Prodotto): void" style="text;align=left;verticalAlign=top;spacingLeft=4;spacingRight=4;overflow=hidden;rotatable=0;points=[[0,0.5],[1,0.5]];portConstraint=eastwest;" vertex="1" parent="zkfFHV4jXpPFQw0GAbJ--17">
          <mxGeometry y="190" width="230" height="26" as="geometry" />
        </mxCell>
        <mxCell id="P9EtFwSXqVhBpJdGbQ5c-144" value="- aggiungiProdottoStorico(Prodotto): void" style="text;align=left;verticalAlign=top;spacingLeft=4;spacingRight=4;overflow=hidden;rotatable=0;points=[[0,0.5],[1,0.5]];portConstraint=eastwest;" vertex="1" parent="zkfFHV4jXpPFQw0GAbJ--17">
          <mxGeometry y="216" width="230" height="26" as="geometry" />
        </mxCell>
        <mxCell id="P9EtFwSXqVhBpJdGbQ5c-145" value="+ aggiornaUtente(Prodotto): void" style="text;align=left;verticalAlign=top;spacingLeft=4;spacingRight=4;overflow=hidden;rotatable=0;points=[[0,0.5],[1,0.5]];portConstraint=eastwest;" vertex="1" parent="zkfFHV4jXpPFQw0GAbJ--17">
          <mxGeometry y="242" width="230" height="26" as="geometry" />
        </mxCell>
        <mxCell id="P9EtFwSXqVhBpJdGbQ5c-158" value="+ stampaStorico(): void" style="text;align=left;verticalAlign=top;spacingLeft=4;spacingRight=4;overflow=hidden;rotatable=0;points=[[0,0.5],[1,0.5]];portConstraint=eastwest;" vertex="1" parent="zkfFHV4jXpPFQw0GAbJ--17">
          <mxGeometry y="268" width="230" height="26" as="geometry" />
        </mxCell>
        <mxCell id="zkfFHV4jXpPFQw0GAbJ--25" value="+ Getter, Setter, ToString&#xa;" style="text;align=left;verticalAlign=top;spacingLeft=4;spacingRight=4;overflow=hidden;rotatable=0;points=[[0,0.5],[1,0.5]];portConstraint=eastwest;" parent="zkfFHV4jXpPFQw0GAbJ--17" vertex="1">
          <mxGeometry y="294" width="230" height="26" as="geometry" />
        </mxCell>
        <mxCell id="P9EtFwSXqVhBpJdGbQ5c-4" value="DbUtilityÂ " style="swimlane;fontStyle=0;align=center;verticalAlign=top;childLayout=stackLayout;horizontal=1;startSize=26;horizontalStack=0;resizeParent=1;resizeLast=0;collapsible=1;marginBottom=0;rounded=0;shadow=0;strokeWidth=1;" vertex="1" parent="WIyWlLk6GJQsqaUBKTNV-1">
          <mxGeometry x="-210" y="372" width="160" height="70" as="geometry">
            <mxRectangle x="130" y="380" width="160" height="26" as="alternateBounds" />
          </mxGeometry>
        </mxCell>
        <mxCell id="P9EtFwSXqVhBpJdGbQ5c-7" value="" style="line;html=1;strokeWidth=1;align=left;verticalAlign=middle;spacingTop=-1;spacingLeft=3;spacingRight=3;rotatable=0;labelPosition=right;points=[];portConstraint=eastwest;" vertex="1" parent="P9EtFwSXqVhBpJdGbQ5c-4">
          <mxGeometry y="26" width="160" height="8" as="geometry" />
        </mxCell>
        <mxCell id="P9EtFwSXqVhBpJdGbQ5c-8" value="+ loadDati: String[]Â " style="text;align=left;verticalAlign=top;spacingLeft=4;spacingRight=4;overflow=hidden;rotatable=0;points=[[0,0.5],[1,0.5]];portConstraint=eastwest;fontStyle=4" vertex="1" parent="P9EtFwSXqVhBpJdGbQ5c-4">
          <mxGeometry y="34" width="160" height="24" as="geometry" />
        </mxCell>
        <mxCell id="P9EtFwSXqVhBpJdGbQ5c-16" value="Init &lt;&lt;Interface&gt;&gt;" style="swimlane;fontStyle=2;align=center;verticalAlign=top;childLayout=stackLayout;horizontal=1;startSize=26;horizontalStack=0;resizeParent=1;resizeLast=0;collapsible=1;marginBottom=0;rounded=0;shadow=0;strokeWidth=1;" vertex="1" parent="WIyWlLk6GJQsqaUBKTNV-1">
          <mxGeometry x="-493" y="100" width="160" height="86" as="geometry">
            <mxRectangle x="230" y="140" width="160" height="26" as="alternateBounds" />
          </mxGeometry>
        </mxCell>
        <mxCell id="P9EtFwSXqVhBpJdGbQ5c-19" value="" style="line;html=1;strokeWidth=1;align=left;verticalAlign=middle;spacingTop=-1;spacingLeft=3;spacingRight=3;rotatable=0;labelPosition=right;points=[];portConstraint=eastwest;" vertex="1" parent="P9EtFwSXqVhBpJdGbQ5c-16">
          <mxGeometry y="26" width="160" height="8" as="geometry" />
        </mxCell>
        <mxCell id="P9EtFwSXqVhBpJdGbQ5c-20" value="init(): void" style="text;align=left;verticalAlign=top;spacingLeft=4;spacingRight=4;overflow=hidden;rotatable=0;points=[[0,0.5],[1,0.5]];portConstraint=eastwest;" vertex="1" parent="P9EtFwSXqVhBpJdGbQ5c-16">
          <mxGeometry y="34" width="160" height="26" as="geometry" />
        </mxCell>
        <mxCell id="P9EtFwSXqVhBpJdGbQ5c-73" value="&lt;T&gt; close(T, String): T" style="text;align=left;verticalAlign=top;spacingLeft=4;spacingRight=4;overflow=hidden;rotatable=0;points=[[0,0.5],[1,0.5]];portConstraint=eastwest;" vertex="1" parent="P9EtFwSXqVhBpJdGbQ5c-16">
          <mxGeometry y="60" width="160" height="26" as="geometry" />
        </mxCell>
        <mxCell id="P9EtFwSXqVhBpJdGbQ5c-49" value="BaseInit" style="swimlane;fontStyle=2;align=center;verticalAlign=top;childLayout=stackLayout;horizontal=1;startSize=26;horizontalStack=0;resizeParent=1;resizeLast=0;collapsible=1;marginBottom=0;rounded=0;shadow=0;strokeWidth=1;" vertex="1" parent="WIyWlLk6GJQsqaUBKTNV-1">
          <mxGeometry x="-600" y="286" width="160" height="86" as="geometry">
            <mxRectangle x="230" y="140" width="160" height="26" as="alternateBounds" />
          </mxGeometry>
        </mxCell>
        <mxCell id="P9EtFwSXqVhBpJdGbQ5c-50" value="" style="line;html=1;strokeWidth=1;align=left;verticalAlign=middle;spacingTop=-1;spacingLeft=3;spacingRight=3;rotatable=0;labelPosition=right;points=[];portConstraint=eastwest;" vertex="1" parent="P9EtFwSXqVhBpJdGbQ5c-49">
          <mxGeometry y="26" width="160" height="8" as="geometry" />
        </mxCell>
        <mxCell id="P9EtFwSXqVhBpJdGbQ5c-51" value="+ init(): void" style="text;align=left;verticalAlign=top;spacingLeft=4;spacingRight=4;overflow=hidden;rotatable=0;points=[[0,0.5],[1,0.5]];portConstraint=eastwest;" vertex="1" parent="P9EtFwSXqVhBpJdGbQ5c-49">
          <mxGeometry y="34" width="160" height="26" as="geometry" />
        </mxCell>
        <mxCell id="P9EtFwSXqVhBpJdGbQ5c-74" value="+ &lt;T&gt;close(T, String): T" style="text;align=left;verticalAlign=top;spacingLeft=4;spacingRight=4;overflow=hidden;rotatable=0;points=[[0,0.5],[1,0.5]];portConstraint=eastwest;" vertex="1" parent="P9EtFwSXqVhBpJdGbQ5c-49">
          <mxGeometry y="60" width="160" height="26" as="geometry" />
        </mxCell>
        <mxCell id="P9EtFwSXqVhBpJdGbQ5c-52" value="implemets" style="endArrow=classic;html=1;rounded=0;entryX=-0.024;entryY=0.16;entryDx=0;entryDy=0;entryPerimeter=0;exitX=0.5;exitY=0;exitDx=0;exitDy=0;" edge="1" parent="WIyWlLk6GJQsqaUBKTNV-1" source="P9EtFwSXqVhBpJdGbQ5c-49" target="P9EtFwSXqVhBpJdGbQ5c-16">
          <mxGeometry width="50" height="50" relative="1" as="geometry">
            <mxPoint x="-410" y="30" as="sourcePoint" />
            <mxPoint x="-380" y="-100" as="targetPoint" />
          </mxGeometry>
        </mxCell>
        <mxCell id="P9EtFwSXqVhBpJdGbQ5c-56" value="implemets" style="endArrow=classic;html=1;rounded=0;exitX=-0.006;exitY=0.109;exitDx=0;exitDy=0;entryX=1;entryY=0.25;entryDx=0;entryDy=0;exitPerimeter=0;" edge="1" parent="WIyWlLk6GJQsqaUBKTNV-1" source="P9EtFwSXqVhBpJdGbQ5c-59" target="P9EtFwSXqVhBpJdGbQ5c-16">
          <mxGeometry width="50" height="50" relative="1" as="geometry">
            <mxPoint x="-150" y="77.5" as="sourcePoint" />
            <mxPoint x="-240" as="targetPoint" />
          </mxGeometry>
        </mxCell>
        <mxCell id="P9EtFwSXqVhBpJdGbQ5c-59" value="BaseInitDecorator &lt;&lt;abstract&gt;&gt;" style="swimlane;fontStyle=2;align=center;verticalAlign=top;childLayout=stackLayout;horizontal=1;startSize=26;horizontalStack=0;resizeParent=1;resizeLast=0;collapsible=1;marginBottom=0;rounded=0;shadow=0;strokeWidth=1;" vertex="1" parent="WIyWlLk6GJQsqaUBKTNV-1">
          <mxGeometry x="-230" y="120" width="180" height="112" as="geometry">
            <mxRectangle x="230" y="140" width="160" height="26" as="alternateBounds" />
          </mxGeometry>
        </mxCell>
        <mxCell id="P9EtFwSXqVhBpJdGbQ5c-60" value="- Init: inizializer" style="text;align=left;verticalAlign=top;spacingLeft=4;spacingRight=4;overflow=hidden;rotatable=0;points=[[0,0.5],[1,0.5]];portConstraint=eastwest;rounded=0;shadow=0;html=0;" vertex="1" parent="P9EtFwSXqVhBpJdGbQ5c-59">
          <mxGeometry y="26" width="180" height="26" as="geometry" />
        </mxCell>
        <mxCell id="P9EtFwSXqVhBpJdGbQ5c-61" value="" style="line;html=1;strokeWidth=1;align=left;verticalAlign=middle;spacingTop=-1;spacingLeft=3;spacingRight=3;rotatable=0;labelPosition=right;points=[];portConstraint=eastwest;" vertex="1" parent="P9EtFwSXqVhBpJdGbQ5c-59">
          <mxGeometry y="52" width="180" height="8" as="geometry" />
        </mxCell>
        <mxCell id="P9EtFwSXqVhBpJdGbQ5c-62" value="+ BaseInitDecorator(Init)" style="text;align=left;verticalAlign=top;spacingLeft=4;spacingRight=4;overflow=hidden;rotatable=0;points=[[0,0.5],[1,0.5]];portConstraint=eastwest;" vertex="1" parent="P9EtFwSXqVhBpJdGbQ5c-59">
          <mxGeometry y="60" width="180" height="26" as="geometry" />
        </mxCell>
        <mxCell id="P9EtFwSXqVhBpJdGbQ5c-71" value="+ &lt;T&gt; init(T, String): T" style="text;align=left;verticalAlign=top;spacingLeft=4;spacingRight=4;overflow=hidden;rotatable=0;points=[[0,0.5],[1,0.5]];portConstraint=eastwest;" vertex="1" parent="P9EtFwSXqVhBpJdGbQ5c-59">
          <mxGeometry y="86" width="180" height="26" as="geometry" />
        </mxCell>
        <mxCell id="P9EtFwSXqVhBpJdGbQ5c-63" value="DbInitDecorator" style="swimlane;fontStyle=2;align=center;verticalAlign=top;childLayout=stackLayout;horizontal=1;startSize=26;horizontalStack=0;resizeParent=1;resizeLast=0;collapsible=1;marginBottom=0;rounded=0;shadow=0;strokeWidth=1;" vertex="1" parent="WIyWlLk6GJQsqaUBKTNV-1">
          <mxGeometry x="40" y="130" width="180" height="138" as="geometry">
            <mxRectangle x="230" y="140" width="160" height="26" as="alternateBounds" />
          </mxGeometry>
        </mxCell>
        <mxCell id="P9EtFwSXqVhBpJdGbQ5c-64" value="- DbInterface: dbInterface" style="text;align=left;verticalAlign=top;spacingLeft=4;spacingRight=4;overflow=hidden;rotatable=0;points=[[0,0.5],[1,0.5]];portConstraint=eastwest;rounded=0;shadow=0;html=0;" vertex="1" parent="P9EtFwSXqVhBpJdGbQ5c-63">
          <mxGeometry y="26" width="180" height="26" as="geometry" />
        </mxCell>
        <mxCell id="P9EtFwSXqVhBpJdGbQ5c-65" value="" style="line;html=1;strokeWidth=1;align=left;verticalAlign=middle;spacingTop=-1;spacingLeft=3;spacingRight=3;rotatable=0;labelPosition=right;points=[];portConstraint=eastwest;" vertex="1" parent="P9EtFwSXqVhBpJdGbQ5c-63">
          <mxGeometry y="52" width="180" height="8" as="geometry" />
        </mxCell>
        <mxCell id="P9EtFwSXqVhBpJdGbQ5c-66" value="+ DbInitDecorator(Init)" style="text;align=left;verticalAlign=top;spacingLeft=4;spacingRight=4;overflow=hidden;rotatable=0;points=[[0,0.5],[1,0.5]];portConstraint=eastwest;" vertex="1" parent="P9EtFwSXqVhBpJdGbQ5c-63">
          <mxGeometry y="60" width="180" height="26" as="geometry" />
        </mxCell>
        <mxCell id="P9EtFwSXqVhBpJdGbQ5c-69" value="+ init(): void" style="text;align=left;verticalAlign=top;spacingLeft=4;spacingRight=4;overflow=hidden;rotatable=0;points=[[0,0.5],[1,0.5]];portConstraint=eastwest;" vertex="1" parent="P9EtFwSXqVhBpJdGbQ5c-63">
          <mxGeometry y="86" width="180" height="26" as="geometry" />
        </mxCell>
        <mxCell id="P9EtFwSXqVhBpJdGbQ5c-70" value="+ &lt;T&gt; close(T, String): T" style="text;align=left;verticalAlign=top;spacingLeft=4;spacingRight=4;overflow=hidden;rotatable=0;points=[[0,0.5],[1,0.5]];portConstraint=eastwest;" vertex="1" parent="P9EtFwSXqVhBpJdGbQ5c-63">
          <mxGeometry y="112" width="180" height="26" as="geometry" />
        </mxCell>
        <mxCell id="P9EtFwSXqVhBpJdGbQ5c-67" value="extends" style="endArrow=classic;html=1;rounded=0;exitX=-0.014;exitY=0.146;exitDx=0;exitDy=0;entryX=1.019;entryY=0.115;entryDx=0;entryDy=0;exitPerimeter=0;entryPerimeter=0;" edge="1" parent="WIyWlLk6GJQsqaUBKTNV-1" source="P9EtFwSXqVhBpJdGbQ5c-63" target="P9EtFwSXqVhBpJdGbQ5c-59">
          <mxGeometry width="50" height="50" relative="1" as="geometry">
            <mxPoint x="-11" y="238" as="sourcePoint" />
            <mxPoint x="30" y="10" as="targetPoint" />
          </mxGeometry>
        </mxCell>
        <mxCell id="P9EtFwSXqVhBpJdGbQ5c-68" value="" style="endArrow=classic;html=1;rounded=0;exitX=-0.011;exitY=0.068;exitDx=0;exitDy=0;exitPerimeter=0;entryX=1.012;entryY=0.12;entryDx=0;entryDy=0;entryPerimeter=0;" edge="1" parent="WIyWlLk6GJQsqaUBKTNV-1" source="zkfFHV4jXpPFQw0GAbJ--0" target="P9EtFwSXqVhBpJdGbQ5c-63">
          <mxGeometry width="50" height="50" relative="1" as="geometry">
            <mxPoint x="280" y="74" as="sourcePoint" />
            <mxPoint x="330" y="24" as="targetPoint" />
          </mxGeometry>
        </mxCell>
        <mxCell id="P9EtFwSXqVhBpJdGbQ5c-77" value="DbCRUD" style="swimlane;fontStyle=0;align=center;verticalAlign=top;childLayout=stackLayout;horizontal=1;startSize=26;horizontalStack=0;resizeParent=1;resizeLast=0;collapsible=1;marginBottom=0;rounded=0;shadow=0;strokeWidth=1;" vertex="1" parent="WIyWlLk6GJQsqaUBKTNV-1">
          <mxGeometry x="470" y="510" width="190" height="384" as="geometry">
            <mxRectangle x="130" y="380" width="160" height="26" as="alternateBounds" />
          </mxGeometry>
        </mxCell>
        <mxCell id="P9EtFwSXqVhBpJdGbQ5c-78" value="- Connection: connection" style="text;align=left;verticalAlign=top;spacingLeft=4;spacingRight=4;overflow=hidden;rotatable=0;points=[[0,0.5],[1,0.5]];portConstraint=eastwest;" vertex="1" parent="P9EtFwSXqVhBpJdGbQ5c-77">
          <mxGeometry y="26" width="190" height="26" as="geometry" />
        </mxCell>
        <mxCell id="P9EtFwSXqVhBpJdGbQ5c-80" value="- Statement: statement" style="text;align=left;verticalAlign=top;spacingLeft=4;spacingRight=4;overflow=hidden;rotatable=0;points=[[0,0.5],[1,0.5]];portConstraint=eastwest;rounded=0;shadow=0;html=0;" vertex="1" parent="P9EtFwSXqVhBpJdGbQ5c-77">
          <mxGeometry y="52" width="190" height="40" as="geometry" />
        </mxCell>
        <mxCell id="P9EtFwSXqVhBpJdGbQ5c-81" value="" style="line;html=1;strokeWidth=1;align=left;verticalAlign=middle;spacingTop=-1;spacingLeft=3;spacingRight=3;rotatable=0;labelPosition=right;points=[];portConstraint=eastwest;" vertex="1" parent="P9EtFwSXqVhBpJdGbQ5c-77">
          <mxGeometry y="92" width="190" height="8" as="geometry" />
        </mxCell>
        <mxCell id="P9EtFwSXqVhBpJdGbQ5c-82" value="+ DbCRUD(Connection)" style="text;align=left;verticalAlign=top;spacingLeft=4;spacingRight=4;overflow=hidden;rotatable=0;points=[[0,0.5],[1,0.5]];portConstraint=eastwest;fontStyle=0" vertex="1" parent="P9EtFwSXqVhBpJdGbQ5c-77">
          <mxGeometry y="100" width="190" height="24" as="geometry" />
        </mxCell>
        <mxCell id="P9EtFwSXqVhBpJdGbQ5c-83" value="+ creaDb(String): void" style="text;align=left;verticalAlign=top;spacingLeft=4;spacingRight=4;overflow=hidden;rotatable=0;points=[[0,0.5],[1,0.5]];portConstraint=eastwest;" vertex="1" parent="P9EtFwSXqVhBpJdGbQ5c-77">
          <mxGeometry y="124" width="190" height="26" as="geometry" />
        </mxCell>
        <mxCell id="P9EtFwSXqVhBpJdGbQ5c-93" value="+ creaTabella(String): void" style="text;align=left;verticalAlign=top;spacingLeft=4;spacingRight=4;overflow=hidden;rotatable=0;points=[[0,0.5],[1,0.5]];portConstraint=eastwest;" vertex="1" parent="P9EtFwSXqVhBpJdGbQ5c-77">
          <mxGeometry y="150" width="190" height="26" as="geometry" />
        </mxCell>
        <mxCell id="P9EtFwSXqVhBpJdGbQ5c-88" value="+ isDb(String): boolean" style="text;align=left;verticalAlign=top;spacingLeft=4;spacingRight=4;overflow=hidden;rotatable=0;points=[[0,0.5],[1,0.5]];portConstraint=eastwest;" vertex="1" parent="P9EtFwSXqVhBpJdGbQ5c-77">
          <mxGeometry y="176" width="190" height="26" as="geometry" />
        </mxCell>
        <mxCell id="P9EtFwSXqVhBpJdGbQ5c-106" value="+ insertRecord(Utente): void" style="text;align=left;verticalAlign=top;spacingLeft=4;spacingRight=4;overflow=hidden;rotatable=0;points=[[0,0.5],[1,0.5]];portConstraint=eastwest;" vertex="1" parent="P9EtFwSXqVhBpJdGbQ5c-77">
          <mxGeometry y="202" width="190" height="26" as="geometry" />
        </mxCell>
        <mxCell id="P9EtFwSXqVhBpJdGbQ5c-112" value="+ deleteRecord(int): void" style="text;align=left;verticalAlign=top;spacingLeft=4;spacingRight=4;overflow=hidden;rotatable=0;points=[[0,0.5],[1,0.5]];portConstraint=eastwest;" vertex="1" parent="P9EtFwSXqVhBpJdGbQ5c-77">
          <mxGeometry y="228" width="190" height="26" as="geometry" />
        </mxCell>
        <mxCell id="P9EtFwSXqVhBpJdGbQ5c-122" value="+ extractRecord(int): Utente" style="text;align=left;verticalAlign=top;spacingLeft=4;spacingRight=4;overflow=hidden;rotatable=0;points=[[0,0.5],[1,0.5]];portConstraint=eastwest;" vertex="1" parent="P9EtFwSXqVhBpJdGbQ5c-77">
          <mxGeometry y="254" width="190" height="26" as="geometry" />
        </mxCell>
        <mxCell id="P9EtFwSXqVhBpJdGbQ5c-90" value="+ isTable(String): boolean" style="text;align=left;verticalAlign=top;spacingLeft=4;spacingRight=4;overflow=hidden;rotatable=0;points=[[0,0.5],[1,0.5]];portConstraint=eastwest;" vertex="1" parent="P9EtFwSXqVhBpJdGbQ5c-77">
          <mxGeometry y="280" width="190" height="26" as="geometry" />
        </mxCell>
        <mxCell id="P9EtFwSXqVhBpJdGbQ5c-110" value="+ stampaTabella(): void" style="text;align=left;verticalAlign=top;spacingLeft=4;spacingRight=4;overflow=hidden;rotatable=0;points=[[0,0.5],[1,0.5]];portConstraint=eastwest;" vertex="1" parent="P9EtFwSXqVhBpJdGbQ5c-77">
          <mxGeometry y="306" width="190" height="26" as="geometry" />
        </mxCell>
        <mxCell id="P9EtFwSXqVhBpJdGbQ5c-84" value="- creaStatement(): void" style="text;align=left;verticalAlign=top;spacingLeft=4;spacingRight=4;overflow=hidden;rotatable=0;points=[[0,0.5],[1,0.5]];portConstraint=eastwest;" vertex="1" parent="P9EtFwSXqVhBpJdGbQ5c-77">
          <mxGeometry y="332" width="190" height="26" as="geometry" />
        </mxCell>
        <mxCell id="P9EtFwSXqVhBpJdGbQ5c-85" value="- chiuduStatement(): void" style="text;align=left;verticalAlign=top;spacingLeft=4;spacingRight=4;overflow=hidden;rotatable=0;points=[[0,0.5],[1,0.5]];portConstraint=eastwest;" vertex="1" parent="P9EtFwSXqVhBpJdGbQ5c-77">
          <mxGeometry y="358" width="190" height="26" as="geometry" />
        </mxCell>
        <mxCell id="P9EtFwSXqVhBpJdGbQ5c-87" value="" style="endArrow=block;endSize=10;endFill=0;shadow=0;strokeWidth=1;rounded=0;edgeStyle=elbowEdgeStyle;elbow=vertical;exitX=0.458;exitY=0.004;exitDx=0;exitDy=0;exitPerimeter=0;entryX=0.5;entryY=1;entryDx=0;entryDy=0;" edge="1" parent="WIyWlLk6GJQsqaUBKTNV-1" source="P9EtFwSXqVhBpJdGbQ5c-77" target="zkfFHV4jXpPFQw0GAbJ--0">
          <mxGeometry width="160" relative="1" as="geometry">
            <mxPoint x="420" y="380" as="sourcePoint" />
            <mxPoint x="410" y="300" as="targetPoint" />
          </mxGeometry>
        </mxCell>
        <mxCell id="P9EtFwSXqVhBpJdGbQ5c-95" value="Creator" style="swimlane;fontStyle=2;align=center;verticalAlign=top;childLayout=stackLayout;horizontal=1;startSize=26;horizontalStack=0;resizeParent=1;resizeLast=0;collapsible=1;marginBottom=0;rounded=0;shadow=0;strokeWidth=1;" vertex="1" parent="WIyWlLk6GJQsqaUBKTNV-1">
          <mxGeometry x="530" y="-110" width="180" height="164" as="geometry">
            <mxRectangle x="230" y="140" width="160" height="26" as="alternateBounds" />
          </mxGeometry>
        </mxCell>
        <mxCell id="P9EtFwSXqVhBpJdGbQ5c-96" value="- Scanner: scanner" style="text;align=left;verticalAlign=top;spacingLeft=4;spacingRight=4;overflow=hidden;rotatable=0;points=[[0,0.5],[1,0.5]];portConstraint=eastwest;rounded=0;shadow=0;html=0;" vertex="1" parent="P9EtFwSXqVhBpJdGbQ5c-95">
          <mxGeometry y="26" width="180" height="26" as="geometry" />
        </mxCell>
        <mxCell id="P9EtFwSXqVhBpJdGbQ5c-107" value="- DbInterface: DbInterface" style="text;align=left;verticalAlign=top;spacingLeft=4;spacingRight=4;overflow=hidden;rotatable=0;points=[[0,0.5],[1,0.5]];portConstraint=eastwest;rounded=0;shadow=0;html=0;" vertex="1" parent="P9EtFwSXqVhBpJdGbQ5c-95">
          <mxGeometry y="52" width="180" height="26" as="geometry" />
        </mxCell>
        <mxCell id="P9EtFwSXqVhBpJdGbQ5c-97" value="" style="line;html=1;strokeWidth=1;align=left;verticalAlign=middle;spacingTop=-1;spacingLeft=3;spacingRight=3;rotatable=0;labelPosition=right;points=[];portConstraint=eastwest;" vertex="1" parent="P9EtFwSXqVhBpJdGbQ5c-95">
          <mxGeometry y="78" width="180" height="8" as="geometry" />
        </mxCell>
        <mxCell id="P9EtFwSXqVhBpJdGbQ5c-98" value="+ Creator()" style="text;align=left;verticalAlign=top;spacingLeft=4;spacingRight=4;overflow=hidden;rotatable=0;points=[[0,0.5],[1,0.5]];portConstraint=eastwest;" vertex="1" parent="P9EtFwSXqVhBpJdGbQ5c-95">
          <mxGeometry y="86" width="180" height="26" as="geometry" />
        </mxCell>
        <mxCell id="P9EtFwSXqVhBpJdGbQ5c-99" value="+ creaUtente(): Utente" style="text;align=left;verticalAlign=top;spacingLeft=4;spacingRight=4;overflow=hidden;rotatable=0;points=[[0,0.5],[1,0.5]];portConstraint=eastwest;" vertex="1" parent="P9EtFwSXqVhBpJdGbQ5c-95">
          <mxGeometry y="112" width="180" height="26" as="geometry" />
        </mxCell>
        <mxCell id="P9EtFwSXqVhBpJdGbQ5c-111" value="+ cancellaUtente(): void" style="text;align=left;verticalAlign=top;spacingLeft=4;spacingRight=4;overflow=hidden;rotatable=0;points=[[0,0.5],[1,0.5]];portConstraint=eastwest;" vertex="1" parent="P9EtFwSXqVhBpJdGbQ5c-95">
          <mxGeometry y="138" width="180" height="26" as="geometry" />
        </mxCell>
        <mxCell id="P9EtFwSXqVhBpJdGbQ5c-101" value="Actor" style="shape=umlActor;verticalLabelPosition=bottom;verticalAlign=top;html=1;outlineConnect=0;" vertex="1" parent="WIyWlLk6GJQsqaUBKTNV-1">
          <mxGeometry x="230" y="-230" width="30" height="60" as="geometry" />
        </mxCell>
        <mxCell id="P9EtFwSXqVhBpJdGbQ5c-102" value="" style="endArrow=classic;html=1;rounded=0;exitX=0.992;exitY=0.06;exitDx=0;exitDy=0;exitPerimeter=0;" edge="1" parent="WIyWlLk6GJQsqaUBKTNV-1" source="zkfFHV4jXpPFQw0GAbJ--17" target="P9EtFwSXqVhBpJdGbQ5c-101">
          <mxGeometry width="50" height="50" relative="1" as="geometry">
            <mxPoint x="190" y="-80" as="sourcePoint" />
            <mxPoint x="240" y="-130" as="targetPoint" />
          </mxGeometry>
        </mxCell>
        <mxCell id="P9EtFwSXqVhBpJdGbQ5c-103" value="" style="endArrow=classic;html=1;rounded=0;exitX=0;exitY=0.072;exitDx=0;exitDy=0;exitPerimeter=0;entryX=0.5;entryY=0;entryDx=0;entryDy=0;entryPerimeter=0;" edge="1" parent="WIyWlLk6GJQsqaUBKTNV-1" source="P9EtFwSXqVhBpJdGbQ5c-95" target="P9EtFwSXqVhBpJdGbQ5c-101">
          <mxGeometry width="50" height="50" relative="1" as="geometry">
            <mxPoint x="139" y="-400" as="sourcePoint" />
            <mxPoint x="351" y="-97" as="targetPoint" />
          </mxGeometry>
        </mxCell>
        <mxCell id="P9EtFwSXqVhBpJdGbQ5c-108" value="" style="endArrow=classic;html=1;rounded=0;exitX=0.5;exitY=0;exitDx=0;exitDy=0;entryX=0.492;entryY=1.108;entryDx=0;entryDy=0;entryPerimeter=0;" edge="1" parent="WIyWlLk6GJQsqaUBKTNV-1" source="zkfFHV4jXpPFQw0GAbJ--0" target="P9EtFwSXqVhBpJdGbQ5c-111">
          <mxGeometry width="50" height="50" relative="1" as="geometry">
            <mxPoint x="416" y="30" as="sourcePoint" />
            <mxPoint x="390" as="targetPoint" />
            <Array as="points">
              <mxPoint x="400" y="80" />
              <mxPoint x="619" y="80" />
            </Array>
          </mxGeometry>
        </mxCell>
        <mxCell id="P9EtFwSXqVhBpJdGbQ5c-113" value="Store" style="swimlane;fontStyle=2;align=center;verticalAlign=top;childLayout=stackLayout;horizontal=1;startSize=26;horizontalStack=0;resizeParent=1;resizeLast=0;collapsible=1;marginBottom=0;rounded=0;shadow=0;strokeWidth=1;" vertex="1" parent="WIyWlLk6GJQsqaUBKTNV-1">
          <mxGeometry x="230" y="-133" width="180" height="190" as="geometry">
            <mxRectangle x="230" y="140" width="160" height="26" as="alternateBounds" />
          </mxGeometry>
        </mxCell>
        <mxCell id="P9EtFwSXqVhBpJdGbQ5c-114" value="- Scanner: scanner" style="text;align=left;verticalAlign=top;spacingLeft=4;spacingRight=4;overflow=hidden;rotatable=0;points=[[0,0.5],[1,0.5]];portConstraint=eastwest;rounded=0;shadow=0;html=0;" vertex="1" parent="P9EtFwSXqVhBpJdGbQ5c-113">
          <mxGeometry y="26" width="180" height="26" as="geometry" />
        </mxCell>
        <mxCell id="P9EtFwSXqVhBpJdGbQ5c-115" value="- DbInterface: DbInterface" style="text;align=left;verticalAlign=top;spacingLeft=4;spacingRight=4;overflow=hidden;rotatable=0;points=[[0,0.5],[1,0.5]];portConstraint=eastwest;rounded=0;shadow=0;html=0;" vertex="1" parent="P9EtFwSXqVhBpJdGbQ5c-113">
          <mxGeometry y="52" width="180" height="26" as="geometry" />
        </mxCell>
        <mxCell id="P9EtFwSXqVhBpJdGbQ5c-116" value="" style="line;html=1;strokeWidth=1;align=left;verticalAlign=middle;spacingTop=-1;spacingLeft=3;spacingRight=3;rotatable=0;labelPosition=right;points=[];portConstraint=eastwest;" vertex="1" parent="P9EtFwSXqVhBpJdGbQ5c-113">
          <mxGeometry y="78" width="180" height="8" as="geometry" />
        </mxCell>
        <mxCell id="P9EtFwSXqVhBpJdGbQ5c-117" value="+ Store()" style="text;align=left;verticalAlign=top;spacingLeft=4;spacingRight=4;overflow=hidden;rotatable=0;points=[[0,0.5],[1,0.5]];portConstraint=eastwest;" vertex="1" parent="P9EtFwSXqVhBpJdGbQ5c-113">
          <mxGeometry y="86" width="180" height="26" as="geometry" />
        </mxCell>
        <mxCell id="P9EtFwSXqVhBpJdGbQ5c-118" value="+ logIn(): int" style="text;align=left;verticalAlign=top;spacingLeft=4;spacingRight=4;overflow=hidden;rotatable=0;points=[[0,0.5],[1,0.5]];portConstraint=eastwest;" vertex="1" parent="P9EtFwSXqVhBpJdGbQ5c-113">
          <mxGeometry y="112" width="180" height="26" as="geometry" />
        </mxCell>
        <mxCell id="P9EtFwSXqVhBpJdGbQ5c-119" value="+ cercaUtente(): Utente" style="text;align=left;verticalAlign=top;spacingLeft=4;spacingRight=4;overflow=hidden;rotatable=0;points=[[0,0.5],[1,0.5]];portConstraint=eastwest;" vertex="1" parent="P9EtFwSXqVhBpJdGbQ5c-113">
          <mxGeometry y="138" width="180" height="26" as="geometry" />
        </mxCell>
        <mxCell id="P9EtFwSXqVhBpJdGbQ5c-157" value="+ acquistaProdotto(): Prodotto" style="text;align=left;verticalAlign=top;spacingLeft=4;spacingRight=4;overflow=hidden;rotatable=0;points=[[0,0.5],[1,0.5]];portConstraint=eastwest;" vertex="1" parent="P9EtFwSXqVhBpJdGbQ5c-113">
          <mxGeometry y="164" width="180" height="26" as="geometry" />
        </mxCell>
        <mxCell id="P9EtFwSXqVhBpJdGbQ5c-120" value="" style="endArrow=classic;html=1;rounded=0;exitX=0.5;exitY=0;exitDx=0;exitDy=0;entryX=0.478;entryY=1.123;entryDx=0;entryDy=0;entryPerimeter=0;" edge="1" parent="WIyWlLk6GJQsqaUBKTNV-1" source="zkfFHV4jXpPFQw0GAbJ--0" target="P9EtFwSXqVhBpJdGbQ5c-157">
          <mxGeometry width="50" height="50" relative="1" as="geometry">
            <mxPoint x="320" y="48" as="sourcePoint" />
            <mxPoint x="310" y="70" as="targetPoint" />
            <Array as="points">
              <mxPoint x="400" y="90" />
              <mxPoint x="317" y="90" />
            </Array>
          </mxGeometry>
        </mxCell>
        <mxCell id="P9EtFwSXqVhBpJdGbQ5c-121" value="" style="endArrow=classic;html=1;rounded=0;exitX=0.01;exitY=0.177;exitDx=0;exitDy=0;exitPerimeter=0;" edge="1" parent="WIyWlLk6GJQsqaUBKTNV-1" source="P9EtFwSXqVhBpJdGbQ5c-115" target="P9EtFwSXqVhBpJdGbQ5c-125">
          <mxGeometry width="50" height="50" relative="1" as="geometry">
            <mxPoint x="230" y="50" as="sourcePoint" />
            <mxPoint x="280" as="targetPoint" />
          </mxGeometry>
        </mxCell>
        <mxCell id="P9EtFwSXqVhBpJdGbQ5c-124" value="UserInitDecorator" style="swimlane;fontStyle=2;align=center;verticalAlign=top;childLayout=stackLayout;horizontal=1;startSize=26;horizontalStack=0;resizeParent=1;resizeLast=0;collapsible=1;marginBottom=0;rounded=0;shadow=0;strokeWidth=1;" vertex="1" parent="WIyWlLk6GJQsqaUBKTNV-1">
          <mxGeometry x="-220" y="-120" width="180" height="164" as="geometry">
            <mxRectangle x="230" y="140" width="160" height="26" as="alternateBounds" />
          </mxGeometry>
        </mxCell>
        <mxCell id="P9EtFwSXqVhBpJdGbQ5c-125" value="- Utente: user" style="text;align=left;verticalAlign=top;spacingLeft=4;spacingRight=4;overflow=hidden;rotatable=0;points=[[0,0.5],[1,0.5]];portConstraint=eastwest;rounded=0;shadow=0;html=0;" vertex="1" parent="P9EtFwSXqVhBpJdGbQ5c-124">
          <mxGeometry y="26" width="180" height="26" as="geometry" />
        </mxCell>
        <mxCell id="P9EtFwSXqVhBpJdGbQ5c-134" value="- Store: store" style="text;align=left;verticalAlign=top;spacingLeft=4;spacingRight=4;overflow=hidden;rotatable=0;points=[[0,0.5],[1,0.5]];portConstraint=eastwest;rounded=0;shadow=0;html=0;" vertex="1" parent="P9EtFwSXqVhBpJdGbQ5c-124">
          <mxGeometry y="52" width="180" height="26" as="geometry" />
        </mxCell>
        <mxCell id="P9EtFwSXqVhBpJdGbQ5c-126" value="" style="line;html=1;strokeWidth=1;align=left;verticalAlign=middle;spacingTop=-1;spacingLeft=3;spacingRight=3;rotatable=0;labelPosition=right;points=[];portConstraint=eastwest;" vertex="1" parent="P9EtFwSXqVhBpJdGbQ5c-124">
          <mxGeometry y="78" width="180" height="8" as="geometry" />
        </mxCell>
        <mxCell id="P9EtFwSXqVhBpJdGbQ5c-127" value="+ UserInitDecorator(Init, User)" style="text;align=left;verticalAlign=top;spacingLeft=4;spacingRight=4;overflow=hidden;rotatable=0;points=[[0,0.5],[1,0.5]];portConstraint=eastwest;" vertex="1" parent="P9EtFwSXqVhBpJdGbQ5c-124">
          <mxGeometry y="86" width="180" height="26" as="geometry" />
        </mxCell>
        <mxCell id="P9EtFwSXqVhBpJdGbQ5c-128" value="+ init(): void" style="text;align=left;verticalAlign=top;spacingLeft=4;spacingRight=4;overflow=hidden;rotatable=0;points=[[0,0.5],[1,0.5]];portConstraint=eastwest;" vertex="1" parent="P9EtFwSXqVhBpJdGbQ5c-124">
          <mxGeometry y="112" width="180" height="26" as="geometry" />
        </mxCell>
        <mxCell id="P9EtFwSXqVhBpJdGbQ5c-129" value="+ &lt;T&gt; close(T, String): T" style="text;align=left;verticalAlign=top;spacingLeft=4;spacingRight=4;overflow=hidden;rotatable=0;points=[[0,0.5],[1,0.5]];portConstraint=eastwest;" vertex="1" parent="P9EtFwSXqVhBpJdGbQ5c-124">
          <mxGeometry y="138" width="180" height="26" as="geometry" />
        </mxCell>
        <mxCell id="P9EtFwSXqVhBpJdGbQ5c-130" value="extends" style="endArrow=classic;html=1;rounded=0;exitX=0.519;exitY=1.115;exitDx=0;exitDy=0;entryX=0.5;entryY=0;entryDx=0;entryDy=0;exitPerimeter=0;" edge="1" parent="WIyWlLk6GJQsqaUBKTNV-1" source="P9EtFwSXqVhBpJdGbQ5c-129" target="P9EtFwSXqVhBpJdGbQ5c-59">
          <mxGeometry width="50" height="50" relative="1" as="geometry">
            <mxPoint x="-136" y="77" as="sourcePoint" />
            <mxPoint x="-220" y="60" as="targetPoint" />
          </mxGeometry>
        </mxCell>
        <mxCell id="P9EtFwSXqVhBpJdGbQ5c-131" value="" style="endArrow=classic;html=1;rounded=0;exitX=0.462;exitY=1.1;exitDx=0;exitDy=0;exitPerimeter=0;entryX=0.5;entryY=0;entryDx=0;entryDy=0;" edge="1" parent="WIyWlLk6GJQsqaUBKTNV-1" source="zkfFHV4jXpPFQw0GAbJ--25" target="P9EtFwSXqVhBpJdGbQ5c-124">
          <mxGeometry width="50" height="50" relative="1" as="geometry">
            <mxPoint x="100" y="-140" as="sourcePoint" />
            <mxPoint x="150" y="-190" as="targetPoint" />
          </mxGeometry>
        </mxCell>
        <mxCell id="P9EtFwSXqVhBpJdGbQ5c-132" value="" style="endArrow=classic;html=1;rounded=0;exitX=0.541;exitY=-0.004;exitDx=0;exitDy=0;exitPerimeter=0;entryX=0;entryY=1;entryDx=0;entryDy=0;entryPerimeter=0;" edge="1" parent="WIyWlLk6GJQsqaUBKTNV-1" source="P9EtFwSXqVhBpJdGbQ5c-124" target="P9EtFwSXqVhBpJdGbQ5c-101">
          <mxGeometry width="50" height="50" relative="1" as="geometry">
            <mxPoint x="10" y="-180" as="sourcePoint" />
            <mxPoint x="60" y="-230" as="targetPoint" />
          </mxGeometry>
        </mxCell>
        <mxCell id="P9EtFwSXqVhBpJdGbQ5c-133" value="" style="endArrow=classic;html=1;rounded=0;exitX=0.5;exitY=0;exitDx=0;exitDy=0;" edge="1" parent="WIyWlLk6GJQsqaUBKTNV-1" source="P9EtFwSXqVhBpJdGbQ5c-63" target="P9EtFwSXqVhBpJdGbQ5c-101">
          <mxGeometry width="50" height="50" relative="1" as="geometry">
            <mxPoint x="130" y="104" as="sourcePoint" />
            <mxPoint x="180" y="54" as="targetPoint" />
          </mxGeometry>
        </mxCell>
        <mxCell id="P9EtFwSXqVhBpJdGbQ5c-135" value="ArchivioDati" style="swimlane;fontStyle=2;align=center;verticalAlign=top;childLayout=stackLayout;horizontal=1;startSize=26;horizontalStack=0;resizeParent=1;resizeLast=0;collapsible=1;marginBottom=0;rounded=0;shadow=0;strokeWidth=1;" vertex="1" parent="WIyWlLk6GJQsqaUBKTNV-1">
          <mxGeometry x="-503" y="-164" width="180" height="164" as="geometry">
            <mxRectangle x="230" y="140" width="160" height="26" as="alternateBounds" />
          </mxGeometry>
        </mxCell>
        <mxCell id="P9EtFwSXqVhBpJdGbQ5c-136" value="- Utente: user" style="text;align=left;verticalAlign=top;spacingLeft=4;spacingRight=4;overflow=hidden;rotatable=0;points=[[0,0.5],[1,0.5]];portConstraint=eastwest;rounded=0;shadow=0;html=0;" vertex="1" parent="P9EtFwSXqVhBpJdGbQ5c-135">
          <mxGeometry y="26" width="180" height="26" as="geometry" />
        </mxCell>
        <mxCell id="P9EtFwSXqVhBpJdGbQ5c-137" value="- Stroe: store" style="text;align=left;verticalAlign=top;spacingLeft=4;spacingRight=4;overflow=hidden;rotatable=0;points=[[0,0.5],[1,0.5]];portConstraint=eastwest;rounded=0;shadow=0;html=0;" vertex="1" parent="P9EtFwSXqVhBpJdGbQ5c-135">
          <mxGeometry y="52" width="180" height="26" as="geometry" />
        </mxCell>
        <mxCell id="P9EtFwSXqVhBpJdGbQ5c-138" value="" style="line;html=1;strokeWidth=1;align=left;verticalAlign=middle;spacingTop=-1;spacingLeft=3;spacingRight=3;rotatable=0;labelPosition=right;points=[];portConstraint=eastwest;" vertex="1" parent="P9EtFwSXqVhBpJdGbQ5c-135">
          <mxGeometry y="78" width="180" height="8" as="geometry" />
        </mxCell>
        <mxCell id="P9EtFwSXqVhBpJdGbQ5c-139" value="+ isFile(String): boolean" style="text;align=left;verticalAlign=top;spacingLeft=4;spacingRight=4;overflow=hidden;rotatable=0;points=[[0,0.5],[1,0.5]];portConstraint=eastwest;fontStyle=4" vertex="1" parent="P9EtFwSXqVhBpJdGbQ5c-135">
          <mxGeometry y="86" width="180" height="26" as="geometry" />
        </mxCell>
        <mxCell id="P9EtFwSXqVhBpJdGbQ5c-140" value="+ &lt;T&gt;salvaDati(T, String): void" style="text;align=left;verticalAlign=top;spacingLeft=4;spacingRight=4;overflow=hidden;rotatable=0;points=[[0,0.5],[1,0.5]];portConstraint=eastwest;fontStyle=4" vertex="1" parent="P9EtFwSXqVhBpJdGbQ5c-135">
          <mxGeometry y="112" width="180" height="26" as="geometry" />
        </mxCell>
        <mxCell id="P9EtFwSXqVhBpJdGbQ5c-141" value="+&lt;T&gt;caricaDati(String): T" style="text;align=left;verticalAlign=top;spacingLeft=4;spacingRight=4;overflow=hidden;rotatable=0;points=[[0,0.5],[1,0.5]];portConstraint=eastwest;fontStyle=4" vertex="1" parent="P9EtFwSXqVhBpJdGbQ5c-135">
          <mxGeometry y="138" width="180" height="26" as="geometry" />
        </mxCell>
        <mxCell id="P9EtFwSXqVhBpJdGbQ5c-142" value="" style="endArrow=classic;html=1;rounded=0;exitX=0.441;exitY=0.018;exitDx=0;exitDy=0;exitPerimeter=0;entryX=1;entryY=1;entryDx=0;entryDy=0;entryPerimeter=0;" edge="1" parent="WIyWlLk6GJQsqaUBKTNV-1" source="P9EtFwSXqVhBpJdGbQ5c-113" target="P9EtFwSXqVhBpJdGbQ5c-101">
          <mxGeometry width="50" height="50" relative="1" as="geometry">
            <mxPoint x="320" y="-215" as="sourcePoint" />
            <mxPoint x="364" y="-94" as="targetPoint" />
          </mxGeometry>
        </mxCell>
        <mxCell id="P9EtFwSXqVhBpJdGbQ5c-146" value="Carrello" style="swimlane;fontStyle=2;align=center;verticalAlign=top;childLayout=stackLayout;horizontal=1;startSize=26;horizontalStack=0;resizeParent=1;resizeLast=0;collapsible=1;marginBottom=0;rounded=0;shadow=0;strokeWidth=1;" vertex="1" parent="WIyWlLk6GJQsqaUBKTNV-1">
          <mxGeometry x="-730" y="-520" width="367" height="268" as="geometry">
            <mxRectangle x="230" y="140" width="160" height="26" as="alternateBounds" />
          </mxGeometry>
        </mxCell>
        <mxCell id="P9EtFwSXqVhBpJdGbQ5c-147" value="- ArrayList&lt;Prodotto&gt;: listaProdotti" style="text;align=left;verticalAlign=top;spacingLeft=4;spacingRight=4;overflow=hidden;rotatable=0;points=[[0,0.5],[1,0.5]];portConstraint=eastwest;rounded=0;shadow=0;html=0;" vertex="1" parent="P9EtFwSXqVhBpJdGbQ5c-146">
          <mxGeometry y="26" width="367" height="26" as="geometry" />
        </mxCell>
        <mxCell id="P9EtFwSXqVhBpJdGbQ5c-149" value="" style="line;html=1;strokeWidth=1;align=left;verticalAlign=middle;spacingTop=-1;spacingLeft=3;spacingRight=3;rotatable=0;labelPosition=right;points=[];portConstraint=eastwest;" vertex="1" parent="P9EtFwSXqVhBpJdGbQ5c-146">
          <mxGeometry y="52" width="367" height="8" as="geometry" />
        </mxCell>
        <mxCell id="P9EtFwSXqVhBpJdGbQ5c-150" value="+ Carrello()" style="text;align=left;verticalAlign=top;spacingLeft=4;spacingRight=4;overflow=hidden;rotatable=0;points=[[0,0.5],[1,0.5]];portConstraint=eastwest;" vertex="1" parent="P9EtFwSXqVhBpJdGbQ5c-146">
          <mxGeometry y="60" width="367" height="26" as="geometry" />
        </mxCell>
        <mxCell id="P9EtFwSXqVhBpJdGbQ5c-151" value="+ aggiungiProdotto(Prodotto): void" style="text;align=left;verticalAlign=top;spacingLeft=4;spacingRight=4;overflow=hidden;rotatable=0;points=[[0,0.5],[1,0.5]];portConstraint=eastwest;" vertex="1" parent="P9EtFwSXqVhBpJdGbQ5c-146">
          <mxGeometry y="86" width="367" height="26" as="geometry" />
        </mxCell>
        <mxCell id="P9EtFwSXqVhBpJdGbQ5c-152" value="+ RimuoviProdotto(Prodotto): void" style="text;align=left;verticalAlign=top;spacingLeft=4;spacingRight=4;overflow=hidden;rotatable=0;points=[[0,0.5],[1,0.5]];portConstraint=eastwest;" vertex="1" parent="P9EtFwSXqVhBpJdGbQ5c-146">
          <mxGeometry y="112" width="367" height="26" as="geometry" />
        </mxCell>
        <mxCell id="P9EtFwSXqVhBpJdGbQ5c-153" value="+ calcolaTotale(): float" style="text;align=left;verticalAlign=top;spacingLeft=4;spacingRight=4;overflow=hidden;rotatable=0;points=[[0,0.5],[1,0.5]];portConstraint=eastwest;" vertex="1" parent="P9EtFwSXqVhBpJdGbQ5c-146">
          <mxGeometry y="138" width="367" height="26" as="geometry" />
        </mxCell>
        <mxCell id="P9EtFwSXqVhBpJdGbQ5c-162" value="+ calcolaSconto(): float" style="text;align=left;verticalAlign=top;spacingLeft=4;spacingRight=4;overflow=hidden;rotatable=0;points=[[0,0.5],[1,0.5]];portConstraint=eastwest;" vertex="1" parent="P9EtFwSXqVhBpJdGbQ5c-146">
          <mxGeometry y="164" width="367" height="26" as="geometry" />
        </mxCell>
        <mxCell id="P9EtFwSXqVhBpJdGbQ5c-154" value="- &lt;T extends Prodotto&gt; applicaOfferta(T, OffertaSpeciale&lt;T&gt;): float" style="text;align=left;verticalAlign=top;spacingLeft=4;spacingRight=4;overflow=hidden;rotatable=0;points=[[0,0.5],[1,0.5]];portConstraint=eastwest;" vertex="1" parent="P9EtFwSXqVhBpJdGbQ5c-146">
          <mxGeometry y="190" width="367" height="26" as="geometry" />
        </mxCell>
        <mxCell id="P9EtFwSXqVhBpJdGbQ5c-155" value="+ Getter, Setter, ToString" style="text;align=left;verticalAlign=top;spacingLeft=4;spacingRight=4;overflow=hidden;rotatable=0;points=[[0,0.5],[1,0.5]];portConstraint=eastwest;" vertex="1" parent="P9EtFwSXqVhBpJdGbQ5c-146">
          <mxGeometry y="216" width="367" height="26" as="geometry" />
        </mxCell>
        <mxCell id="P9EtFwSXqVhBpJdGbQ5c-159" value="+ stampaCarrello(): void" style="text;align=left;verticalAlign=top;spacingLeft=4;spacingRight=4;overflow=hidden;rotatable=0;points=[[0,0.5],[1,0.5]];portConstraint=eastwest;" vertex="1" parent="P9EtFwSXqVhBpJdGbQ5c-146">
          <mxGeometry y="242" width="367" height="26" as="geometry" />
        </mxCell>
        <mxCell id="P9EtFwSXqVhBpJdGbQ5c-156" value="" style="endArrow=classic;html=1;rounded=0;exitX=1.015;exitY=0.071;exitDx=0;exitDy=0;exitPerimeter=0;entryX=-0.007;entryY=0.05;entryDx=0;entryDy=0;entryPerimeter=0;" edge="1" parent="WIyWlLk6GJQsqaUBKTNV-1" source="P9EtFwSXqVhBpJdGbQ5c-146" target="zkfFHV4jXpPFQw0GAbJ--17">
          <mxGeometry width="50" height="50" relative="1" as="geometry">
            <mxPoint x="-340" y="-440" as="sourcePoint" />
            <mxPoint x="-296" y="-397" as="targetPoint" />
          </mxGeometry>
        </mxCell>
        <mxCell id="P9EtFwSXqVhBpJdGbQ5c-160" value="PRODOTTI..." style="ellipse;whiteSpace=wrap;html=1;" vertex="1" parent="WIyWlLk6GJQsqaUBKTNV-1">
          <mxGeometry x="-460" y="-700" width="120" height="80" as="geometry" />
        </mxCell>
        <mxCell id="P9EtFwSXqVhBpJdGbQ5c-161" value="" style="endArrow=classic;html=1;rounded=0;exitX=0.558;exitY=1.013;exitDx=0;exitDy=0;exitPerimeter=0;entryX=0.484;entryY=-0.006;entryDx=0;entryDy=0;entryPerimeter=0;" edge="1" parent="WIyWlLk6GJQsqaUBKTNV-1" source="P9EtFwSXqVhBpJdGbQ5c-160" target="P9EtFwSXqVhBpJdGbQ5c-146">
          <mxGeometry width="50" height="50" relative="1" as="geometry">
            <mxPoint x="-363" y="-584" as="sourcePoint" />
            <mxPoint x="-288" y="-565" as="targetPoint" />
          </mxGeometry>
        </mxCell>
      </root>
    </mxGraphModel>
  </diagram>
</mxfile>
